<?xml version="1.0" standalone="yes"?>

<svg version="1.1" viewBox="0.0 0.0 920.9475065616798 456.50918635170603" fill="none" stroke="none" stroke-linecap="square" stroke-miterlimit="10" xmlns="http://www.w3.org/2000/svg" xmlns:xlink="http://www.w3.org/1999/xlink"><clipPath id="p.0"><path d="m0 0l920.9475 0l0 456.5092l-920.9475 0l0 -456.5092z" clip-rule="nonzero"></path></clipPath><g clip-path="url(#p.0)"><path fill="#000000" fill-opacity="0.0" d="m0 0l920.9475 0l0 456.5092l-920.9475 0z" fill-rule="evenodd"></path><path fill="#e6b8af" d="m7.530184 40.08399l0 0c0 -20.760687 17.541977 -37.59055 39.1811 -37.59055l0 0c10.391476 0 20.357342 3.9604216 27.705227 11.010017c7.3478775 7.049595 11.475876 16.610899 11.475876 26.580532l0 0c0 20.760689 -17.541977 37.59055 -39.181103 37.59055l0 0c-21.639124 0 -39.1811 -16.82986 -39.1811 -37.59055z" fill-rule="evenodd"></path><path stroke="#000000" stroke-width="1.0" stroke-linejoin="round" stroke-linecap="butt" d="m7.530184 40.08399l0 0c0 -20.760687 17.541977 -37.59055 39.1811 -37.59055l0 0c10.391476 0 20.357342 3.9604216 27.705227 11.010017c7.3478775 7.049595 11.475876 16.610899 11.475876 26.580532l0 0c0 20.760689 -17.541977 37.59055 -39.181103 37.59055l0 0c-21.639124 0 -39.1811 -16.82986 -39.1811 -37.59055z" fill-rule="evenodd"></path><path fill="#e6b8af" d="m7.530184 133.41733l0 0c0 -20.760696 17.541977 -37.590553 39.1811 -37.590553l0 0c10.391476 0 20.357342 3.9604187 27.705227 11.010017c7.3478775 7.049591 11.475876 16.610893 11.475876 26.580536l0 0c0 20.760681 -17.541977 37.590546 -39.181103 37.590546l0 0c-21.639124 0 -39.1811 -16.829865 -39.1811 -37.590546z" fill-rule="evenodd"></path><path stroke="#000000" stroke-width="1.0" stroke-linejoin="round" stroke-linecap="butt" d="m7.530184 133.41733l0 0c0 -20.760696 17.541977 -37.590553 39.1811 -37.590553l0 0c10.391476 0 20.357342 3.9604187 27.705227 11.010017c7.3478775 7.049591 11.475876 16.610893 11.475876 26.580536l0 0c0 20.760681 -17.541977 37.590546 -39.181103 37.590546l0 0c-21.639124 0 -39.1811 -16.829865 -39.1811 -37.590546z" fill-rule="evenodd"></path><path fill="#e6b8af" d="m7.530184 320.08398l0 0c0 -20.760681 17.541977 -37.590546 39.1811 -37.590546l0 0c10.391476 0 20.357342 3.9604187 27.705227 11.01001c7.3478775 7.049591 11.475876 16.6109 11.475876 26.580536l0 0c0 20.760681 -17.541977 37.590546 -39.181103 37.590546l0 0c-21.639124 0 -39.1811 -16.829865 -39.1811 -37.590546z" fill-rule="evenodd"></path><path stroke="#000000" stroke-width="1.0" stroke-linejoin="round" stroke-linecap="butt" d="m7.530184 320.08398l0 0c0 -20.760681 17.541977 -37.590546 39.1811 -37.590546l0 0c10.391476 0 20.357342 3.9604187 27.705227 11.01001c7.3478775 7.049591 11.475876 16.6109 11.475876 26.580536l0 0c0 20.760681 -17.541977 37.590546 -39.181103 37.590546l0 0c-21.639124 0 -39.1811 -16.829865 -39.1811 -37.590546z" fill-rule="evenodd"></path><path fill="#e6b8af" d="m7.530184 226.75066l0 0c0 -20.760681 17.541977 -37.590546 39.1811 -37.590546l0 0c10.391476 0 20.357342 3.9604187 27.705227 11.01001c7.3478775 7.049591 11.475876 16.6109 11.475876 26.580536l0 0c0 20.760681 -17.541977 37.59056 -39.181103 37.59056l0 0c-21.639124 0 -39.1811 -16.82988 -39.1811 -37.59056z" fill-rule="evenodd"></path><path stroke="#000000" stroke-width="1.0" stroke-linejoin="round" stroke-linecap="butt" d="m7.530184 226.75066l0 0c0 -20.760681 17.541977 -37.590546 39.1811 -37.590546l0 0c10.391476 0 20.357342 3.9604187 27.705227 11.01001c7.3478775 7.049591 11.475876 16.6109 11.475876 26.580536l0 0c0 20.760681 -17.541977 37.59056 -39.181103 37.59056l0 0c-21.639124 0 -39.1811 -16.82988 -39.1811 -37.59056z" fill-rule="evenodd"></path><path fill="#e6b8af" d="m219.53018 86.750656l0 0c0 -20.760689 17.541977 -37.59055 39.18109 -37.59055l0 0c10.3914795 0 20.35736 3.9604187 27.70523 11.010017c7.3479004 7.049595 11.475891 16.610897 11.475891 26.580532l0 0c0 20.760689 -17.541992 37.590553 -39.18112 37.590553l0 0c-21.639114 0 -39.18109 -16.829865 -39.18109 -37.590553z" fill-rule="evenodd"></path><path stroke="#000000" stroke-width="1.0" stroke-linejoin="round" stroke-linecap="butt" d="m219.53018 86.750656l0 0c0 -20.760689 17.541977 -37.59055 39.18109 -37.59055l0 0c10.3914795 0 20.35736 3.9604187 27.70523 11.010017c7.3479004 7.049595 11.475891 16.610897 11.475891 26.580532l0 0c0 20.760689 -17.541992 37.590553 -39.18112 37.590553l0 0c-21.639114 0 -39.18109 -16.829865 -39.18109 -37.590553z" fill-rule="evenodd"></path><path fill="#e6b8af" d="m219.53018 180.08398l0 0c0 -20.760681 17.541977 -37.590546 39.18109 -37.590546l0 0c10.3914795 0 20.35736 3.9604187 27.70523 11.01001c7.3479004 7.0496063 11.475891 16.6109 11.475891 26.580536l0 0c0 20.760696 -17.541992 37.59056 -39.18112 37.59056l0 0c-21.639114 0 -39.18109 -16.829865 -39.18109 -37.59056z" fill-rule="evenodd"></path><path stroke="#000000" stroke-width="1.0" stroke-linejoin="round" stroke-linecap="butt" d="m219.53018 180.08398l0 0c0 -20.760681 17.541977 -37.590546 39.18109 -37.590546l0 0c10.3914795 0 20.35736 3.9604187 27.70523 11.01001c7.3479004 7.0496063 11.475891 16.6109 11.475891 26.580536l0 0c0 20.760696 -17.541992 37.59056 -39.18112 37.59056l0 0c-21.639114 0 -39.18109 -16.829865 -39.18109 -37.59056z" fill-rule="evenodd"></path><path fill="#e6b8af" d="m219.53018 273.41733l0 0c0 -20.760696 17.541977 -37.59056 39.18109 -37.59056l0 0c10.3914795 0 20.35736 3.960434 27.70523 11.010025c7.3479004 7.049591 11.475891 16.6109 11.475891 26.580536l0 0c0 20.760681 -17.541992 37.590546 -39.18112 37.590546l0 0c-21.639114 0 -39.18109 -16.829865 -39.18109 -37.590546z" fill-rule="evenodd"></path><path stroke="#000000" stroke-width="1.0" stroke-linejoin="round" stroke-linecap="butt" d="m219.53018 273.41733l0 0c0 -20.760696 17.541977 -37.59056 39.18109 -37.59056l0 0c10.3914795 0 20.35736 3.960434 27.70523 11.010025c7.3479004 7.049591 11.475891 16.6109 11.475891 26.580536l0 0c0 20.760681 -17.541992 37.590546 -39.18112 37.590546l0 0c-21.639114 0 -39.18109 -16.829865 -39.18109 -37.590546z" fill-rule="evenodd"></path><path fill="#e6b8af" d="m431.53018 133.41733l0 0c0 -20.760696 17.541992 -37.590553 39.18109 -37.590553l0 0c10.3914795 0 20.35736 3.9604187 27.70523 11.010017c7.3479004 7.049591 11.475891 16.610893 11.475891 26.580536l0 0c0 20.760681 -17.541992 37.590546 -39.18112 37.590546l0 0c-21.6391 0 -39.18109 -16.829865 -39.18109 -37.590546z" fill-rule="evenodd"></path><path stroke="#000000" stroke-width="1.0" stroke-linejoin="round" stroke-linecap="butt" d="m431.53018 133.41733l0 0c0 -20.760696 17.541992 -37.590553 39.18109 -37.590553l0 0c10.3914795 0 20.35736 3.9604187 27.70523 11.010017c7.3479004 7.049591 11.475891 16.610893 11.475891 26.580536l0 0c0 20.760681 -17.541992 37.590546 -39.18112 37.590546l0 0c-21.6391 0 -39.18109 -16.829865 -39.18109 -37.590546z" fill-rule="evenodd"></path><path fill="#e6b8af" d="m431.53018 226.75066l0 0c0 -20.760681 17.541992 -37.590546 39.18109 -37.590546l0 0c10.3914795 0 20.35736 3.9604187 27.70523 11.01001c7.3479004 7.049591 11.475891 16.6109 11.475891 26.580536l0 0c0 20.760681 -17.541992 37.59056 -39.18112 37.59056l0 0c-21.6391 0 -39.18109 -16.82988 -39.18109 -37.59056z" fill-rule="evenodd"></path><path stroke="#000000" stroke-width="1.0" stroke-linejoin="round" stroke-linecap="butt" d="m431.53018 226.75066l0 0c0 -20.760681 17.541992 -37.590546 39.18109 -37.590546l0 0c10.3914795 0 20.35736 3.9604187 27.70523 11.01001c7.3479004 7.049591 11.475891 16.6109 11.475891 26.580536l0 0c0 20.760681 -17.541992 37.59056 -39.18112 37.59056l0 0c-21.6391 0 -39.18109 -16.82988 -39.18109 -37.59056z" fill-rule="evenodd"></path><path fill="#000000" fill-opacity="0.0" d="m85.89239 40.08399l133.63779 46.677166" fill-rule="evenodd"></path><path stroke="#00ff00" stroke-width="1.0" stroke-linejoin="round" stroke-linecap="butt" d="m85.89239 40.08399l127.97338 44.69869" fill-rule="evenodd"></path><path fill="#00ff00" stroke="#00ff00" stroke-width="1.0" stroke-linecap="butt" d="m213.3211 86.34203l4.8289337 -0.062934875l-3.739624 -3.0557709z" fill-rule="evenodd"></path><path fill="#000000" fill-opacity="0.0" d="m85.89239 40.08399l133.63779 140.0" fill-rule="evenodd"></path><path stroke="#00ff00" stroke-width="1.0" stroke-linejoin="round" stroke-linecap="butt" d="m85.89239 40.08399l129.4949 135.65988" fill-rule="evenodd"></path><path fill="#00ff00" stroke="#00ff00" stroke-width="1.0" stroke-linecap="butt" d="m214.19252 176.88437l4.328247 2.1421509l-1.9386749 -4.423126z" fill-rule="evenodd"></path><path fill="#000000" fill-opacity="0.0" d="m85.89239 40.08399l133.63779 233.32285" fill-rule="evenodd"></path><path stroke="#00ff00" stroke-width="1.0" stroke-linejoin="round" stroke-linecap="butt" d="m85.89239 40.08399l130.65573 228.11636" fill-rule="evenodd"></path><path fill="#00ff00" stroke="#00ff00" stroke-width="1.0" stroke-linecap="butt" d="m215.11485 269.02127l3.6887512 3.1170044l-0.82218933 -4.75885z" fill-rule="evenodd"></path><path fill="#000000" fill-opacity="0.0" d="m85.89239 133.41733l133.63779 -46.67717" fill-rule="evenodd"></path><path stroke="#ff9900" stroke-width="1.0" stroke-linejoin="round" stroke-linecap="butt" d="m85.89239 133.41733l127.97338 -44.698692" fill-rule="evenodd"></path><path fill="#ff9900" stroke="#ff9900" stroke-width="1.0" stroke-linecap="butt" d="m214.41042 90.277985l3.739624 -3.0557709l-4.8289337 -0.062934875z" fill-rule="evenodd"></path><path fill="#000000" fill-opacity="0.0" d="m85.89239 133.41733l133.63779 46.677155" fill-rule="evenodd"></path><path stroke="#ff9900" stroke-width="1.0" stroke-linejoin="round" stroke-linecap="butt" d="m85.89239 133.41733l127.97338 44.698685" fill-rule="evenodd"></path><path fill="#ff9900" stroke="#ff9900" stroke-width="1.0" stroke-linecap="butt" d="m213.3211 179.67537l4.8289337 -0.062942505l-3.739624 -3.0557709z" fill-rule="evenodd"></path><path fill="#000000" fill-opacity="0.0" d="m85.89239 133.41733l133.63779 140.0" fill-rule="evenodd"></path><path stroke="#ff9900" stroke-width="1.0" stroke-linejoin="round" stroke-linecap="butt" d="m85.89239 133.41733l129.4949 135.65988" fill-rule="evenodd"></path><path fill="#ff9900" stroke="#ff9900" stroke-width="1.0" stroke-linecap="butt" d="m214.19252 270.2177l4.328247 2.1421509l-1.9386749 -4.423126z" fill-rule="evenodd"></path><path fill="#000000" fill-opacity="0.0" d="m85.89239 226.75066l133.63779 -140.0" fill-rule="evenodd"></path><path stroke="#980000" stroke-width="1.0" stroke-linejoin="round" stroke-linecap="butt" d="m85.89239 226.75066l129.4949 -135.65988" fill-rule="evenodd"></path><path fill="#980000" stroke="#980000" stroke-width="1.0" stroke-linecap="butt" d="m216.58209 92.231255l1.9386749 -4.423126l-4.328247 2.1421509z" fill-rule="evenodd"></path><path fill="#000000" fill-opacity="0.0" d="m85.89239 226.75066l133.63779 -46.67717" fill-rule="evenodd"></path><path stroke="#980000" stroke-width="1.0" stroke-linejoin="round" stroke-linecap="butt" d="m85.89239 226.75066l127.97338 -44.6987" fill-rule="evenodd"></path><path fill="#980000" stroke="#980000" stroke-width="1.0" stroke-linecap="butt" d="m214.41042 183.61131l3.739624 -3.0557709l-4.8289337 -0.062927246z" fill-rule="evenodd"></path><path fill="#000000" fill-opacity="0.0" d="m85.89239 226.75066l133.63779 46.67717" fill-rule="evenodd"></path><path stroke="#980000" stroke-width="1.0" stroke-linejoin="round" stroke-linecap="butt" d="m85.89239 226.75066l127.97338 44.698685" fill-rule="evenodd"></path><path fill="#980000" stroke="#980000" stroke-width="1.0" stroke-linecap="butt" d="m213.3211 273.0087l4.8289337 -0.062927246l-3.739624 -3.0557861z" fill-rule="evenodd"></path><path fill="#000000" fill-opacity="0.0" d="m85.89239 320.08398l133.63779 -233.32283" fill-rule="evenodd"></path><path stroke="#00ffff" stroke-width="1.0" stroke-linejoin="round" stroke-linecap="butt" d="m85.89239 320.08398l130.65573 -228.11636" fill-rule="evenodd"></path><path fill="#00ffff" stroke="#00ffff" stroke-width="1.0" stroke-linecap="butt" d="m217.98141 92.78855l0.82218933 -4.758835l-3.6887512 3.1169815z" fill-rule="evenodd"></path><path fill="#000000" fill-opacity="0.0" d="m85.89239 320.08398l133.63779 -140.0" fill-rule="evenodd"></path><path stroke="#00ffff" stroke-width="1.0" stroke-linejoin="round" stroke-linecap="butt" d="m85.89239 320.08398l129.4949 -135.65988" fill-rule="evenodd"></path><path fill="#00ffff" stroke="#00ffff" stroke-width="1.0" stroke-linecap="butt" d="m216.58209 185.56459l1.9386749 -4.423126l-4.328247 2.1421509z" fill-rule="evenodd"></path><path fill="#000000" fill-opacity="0.0" d="m85.89239 320.08398l133.63779 -46.677155" fill-rule="evenodd"></path><path stroke="#00ffff" stroke-width="1.0" stroke-linejoin="round" stroke-linecap="butt" d="m85.89239 320.08398l127.97338 -44.6987" fill-rule="evenodd"></path><path fill="#00ffff" stroke="#00ffff" stroke-width="1.0" stroke-linecap="butt" d="m214.41042 276.94464l3.739624 -3.0557556l-4.8289337 -0.062927246z" fill-rule="evenodd"></path><path fill="#000000" fill-opacity="0.0" d="m297.8924 180.08398l133.63779 -46.677155" fill-rule="evenodd"></path><path stroke="#ff00ff" stroke-width="1.0" stroke-linejoin="round" stroke-linecap="butt" d="m297.8924 180.08398l127.97339 -44.698685" fill-rule="evenodd"></path><path fill="#ff00ff" stroke="#ff00ff" stroke-width="1.0" stroke-linecap="butt" d="m426.41043 136.94466l3.739624 -3.0557709l-4.828949 -0.062942505z" fill-rule="evenodd"></path><path fill="#000000" fill-opacity="0.0" d="m297.8924 86.750656l133.63779 46.67717" fill-rule="evenodd"></path><path stroke="#9900ff" stroke-width="1.0" stroke-linejoin="round" stroke-linecap="butt" d="m297.8924 86.750656l127.97339 44.698685" fill-rule="evenodd"></path><path fill="#9900ff" stroke="#9900ff" stroke-width="1.0" stroke-linecap="butt" d="m425.3211 133.0087l4.828949 -0.062927246l-3.739624 -3.0557709z" fill-rule="evenodd"></path><path fill="#000000" fill-opacity="0.0" d="m297.8924 273.41733l133.63779 -140.0" fill-rule="evenodd"></path><path stroke="#0000ff" stroke-width="1.0" stroke-linejoin="round" stroke-linecap="butt" d="m297.8924 273.41733l129.4949 -135.6599" fill-rule="evenodd"></path><path fill="#0000ff" stroke="#0000ff" stroke-width="1.0" stroke-linecap="butt" d="m428.5821 138.89792l1.9386902 -4.423126l-4.328247 2.1421509z" fill-rule="evenodd"></path><path fill="#000000" fill-opacity="0.0" d="m297.8924 86.750656l133.63779 140.0" fill-rule="evenodd"></path><path stroke="#9900ff" stroke-width="1.0" stroke-linejoin="round" stroke-linecap="butt" d="m297.8924 86.750656l129.4949 135.65988" fill-rule="evenodd"></path><path fill="#9900ff" stroke="#9900ff" stroke-width="1.0" stroke-linecap="butt" d="m426.19254 223.55103l4.328247 2.1421661l-1.9386902 -4.4231415z" fill-rule="evenodd"></path><path fill="#000000" fill-opacity="0.0" d="m297.8924 180.08398l133.63779 46.67717" fill-rule="evenodd"></path><path stroke="#ff00ff" stroke-width="1.0" stroke-linejoin="round" stroke-linecap="butt" d="m297.8924 180.08398l127.97339 44.6987" fill-rule="evenodd"></path><path fill="#ff00ff" stroke="#ff00ff" stroke-width="1.0" stroke-linecap="butt" d="m425.3211 226.34203l4.828949 -0.062927246l-3.739624 -3.0557709z" fill-rule="evenodd"></path><path fill="#000000" fill-opacity="0.0" d="m297.8924 273.41733l133.63779 -46.67717" fill-rule="evenodd"></path><path stroke="#0000ff" stroke-width="1.0" stroke-linejoin="round" stroke-linecap="butt" d="m297.8924 273.41733l127.97339 -44.6987" fill-rule="evenodd"></path><path fill="#0000ff" stroke="#0000ff" stroke-width="1.0" stroke-linecap="butt" d="m426.41043 230.27798l3.739624 -3.0557709l-4.828949 -0.062927246z" fill-rule="evenodd"></path><path fill="#000000" fill-opacity="0.0" d="m5.4105296 379.4357l81.543304 0l0 80.47244l-81.543304 0z" fill-rule="evenodd"></path><path fill="#000000" d="m35.67462 402.5157l0 -6.75l-1.15625 0l0 -1.03125l1.15625 0l0 -0.828125q0 -0.78125 0.140625 -1.15625q0.203125 -0.515625 0.671875 -0.828125q0.484375 -0.328125 1.34375 -0.328125q0.5625 0 1.234375 0.140625l-0.203125 1.140625q-0.40625 -0.078125 -0.765625 -0.078125q-0.609375 0 -0.859375 0.265625q-0.25 0.25 -0.25 0.953125l0 0.71875l1.515625 0l0 1.03125l-1.515625 0l0 6.75l-1.3125 0zm3.7751007 -9.21875l0 -1.515625l1.3125 0l0 1.515625l-1.3125 0zm0 9.21875l0 -7.78125l1.3125 0l0 7.78125l-1.3125 0zm3.2248993 0l0 -7.78125l1.1875 0l0 1.1875q0.453125 -0.828125 0.84375 -1.09375q0.390625 -0.265625 0.84375 -0.265625q0.671875 0 1.359375 0.421875l-0.453125 1.21875q-0.484375 -0.28125 -0.96875 -0.28125q-0.4375 0 -0.78125 0.265625q-0.34375 0.25 -0.484375 0.71875q-0.21875 0.703125 -0.21875 1.53125l0 4.078125l-1.328125 0zm4.3806458 -2.328125l1.296875 -0.203125q0.109375 0.78125 0.609375 1.203125q0.5 0.421875 1.40625 0.421875q0.90625 0 1.34375 -0.359375q0.4375 -0.375 0.4375 -0.875q0 -0.453125 -0.390625 -0.703125q-0.265625 -0.1875 -1.34375 -0.453125q-1.453125 -0.359375 -2.015625 -0.625q-0.546875 -0.28125 -0.84375 -0.75q-0.28125 -0.46875 -0.28125 -1.046875q0 -0.515625 0.234375 -0.953125q0.234375 -0.453125 0.640625 -0.734375q0.3125 -0.234375 0.84375 -0.390625q0.53125 -0.15625 1.140625 -0.15625q0.90625 0 1.59375 0.265625q0.703125 0.265625 1.03125 0.71875q0.328125 0.4375 0.453125 1.203125l-1.28125 0.171875q-0.09375 -0.609375 -0.515625 -0.9375q-0.421875 -0.34375 -1.1875 -0.34375q-0.90625 0 -1.296875 0.3125q-0.390625 0.296875 -0.390625 0.703125q0 0.25 0.15625 0.453125q0.171875 0.21875 0.515625 0.359375q0.1875 0.0625 1.15625 0.328125q1.40625 0.375 1.953125 0.609375q0.5625 0.234375 0.875 0.703125q0.3125 0.453125 0.3125 1.125q0 0.65625 -0.390625 1.234375q-0.375 0.578125 -1.109375 0.90625q-0.71875 0.3125 -1.640625 0.3125q-1.515625 0 -2.3125 -0.625q-0.78125 -0.625 -1.0 -1.875zm10.734375 1.15625l0.1875 1.15625q-0.5625 0.125 -1.0 0.125q-0.71875 0 -1.125 -0.234375q-0.390625 -0.234375 -0.546875 -0.59375q-0.15625 -0.375 -0.15625 -1.5625l0 -4.46875l-0.96875 0l0 -1.03125l0.96875 0l0 -1.921875l1.3125 -0.796875l0 2.71875l1.328125 0l0 1.03125l-1.328125 0l0 4.546875q0 0.5625 0.0625 0.734375q0.078125 0.15625 0.234375 0.25q0.15625 0.09375 0.4375 0.09375q0.234375 0 0.59375 -0.046875z" fill-rule="nonzero"></path><path fill="#000000" d="m25.160715 420.5157l0 -10.734375l1.328125 0l0 3.84375q0.921875 -1.0625 2.328125 -1.0625q0.859375 0 1.5 0.34375q0.640625 0.34375 0.90625 0.9375q0.28125 0.59375 0.28125 1.75l0 4.921875l-1.328125 0l0 -4.921875q0 -1.0 -0.421875 -1.4375q-0.421875 -0.453125 -1.21875 -0.453125q-0.578125 0 -1.09375 0.296875q-0.515625 0.296875 -0.734375 0.828125q-0.21875 0.515625 -0.21875 1.4375l0 4.25l-1.328125 0zm8.166731 -9.21875l0 -1.515625l1.3125 0l0 1.515625l-1.3125 0zm0 9.21875l0 -7.78125l1.3125 0l0 7.78125l-1.3125 0zm8.287399 0l0 -0.984375q-0.734375 1.15625 -2.171875 1.15625q-0.921875 0 -1.703125 -0.5q-0.78125 -0.515625 -1.21875 -1.4375q-0.421875 -0.921875 -0.421875 -2.109375q0 -1.171875 0.390625 -2.109375q0.390625 -0.953125 1.15625 -1.453125q0.78125 -0.515625 1.734375 -0.515625q0.703125 0 1.25 0.296875q0.5625 0.296875 0.90625 0.765625l0 -3.84375l1.3125 0l0 10.734375l-1.234375 0zm-4.15625 -3.875q0 1.484375 0.625 2.234375q0.625 0.734375 1.484375 0.734375q0.859375 0 1.46875 -0.703125q0.609375 -0.71875 0.609375 -2.15625q0 -1.609375 -0.625 -2.34375q-0.609375 -0.75 -1.515625 -0.75q-0.875 0 -1.46875 0.71875q-0.578125 0.71875 -0.578125 2.265625zm12.307358 3.875l0 -0.984375q-0.734375 1.15625 -2.171875 1.15625q-0.921875 0 -1.703125 -0.5q-0.78125 -0.515625 -1.21875 -1.4375q-0.421875 -0.921875 -0.421875 -2.109375q0 -1.171875 0.390625 -2.109375q0.390625 -0.953125 1.15625 -1.453125q0.78125 -0.515625 1.734375 -0.515625q0.703125 0 1.25 0.296875q0.5625 0.296875 0.90625 0.765625l0 -3.84375l1.3125 0l0 10.734375l-1.234375 0zm-4.15625 -3.875q0 1.484375 0.625 2.234375q0.625 0.734375 1.484375 0.734375q0.859375 0 1.46875 -0.703125q0.609375 -0.71875 0.609375 -2.15625q0 -1.609375 -0.625 -2.34375q-0.609375 -0.75 -1.515625 -0.75q-0.875 0 -1.46875 0.71875q-0.578125 0.71875 -0.578125 2.265625zm12.588608 1.375l1.359375 0.15625q-0.3125 1.203125 -1.1875 1.859375q-0.875 0.65625 -2.234375 0.65625q-1.703125 0 -2.703125 -1.046875q-1.0 -1.046875 -1.0 -2.953125q0 -1.953125 1.015625 -3.03125q1.015625 -1.09375 2.625 -1.09375q1.5625 0 2.546875 1.0625q0.984375 1.0625 0.984375 2.984375q0 0.125 0 0.359375l-5.8125 0q0.078125 1.28125 0.71875 1.96875q0.65625 0.671875 1.640625 0.671875q0.71875 0 1.234375 -0.375q0.515625 -0.390625 0.8125 -1.21875zm-4.328125 -2.140625l4.34375 0q-0.09375 -0.984375 -0.5 -1.46875q-0.625 -0.765625 -1.625 -0.765625q-0.921875 0 -1.546875 0.609375q-0.609375 0.609375 -0.671875 1.625zm7.151108 4.640625l0 -7.78125l1.1875 0l0 1.109375q0.859375 -1.28125 2.484375 -1.28125q0.703125 0 1.28125 0.25q0.59375 0.25 0.890625 0.671875q0.296875 0.40625 0.40625 0.96875q0.078125 0.359375 0.078125 1.28125l0 4.78125l-1.328125 0l0 -4.734375q0 -0.796875 -0.15625 -1.1875q-0.140625 -0.40625 -0.53125 -0.640625q-0.390625 -0.25 -0.921875 -0.25q-0.84375 0 -1.453125 0.53125q-0.609375 0.53125 -0.609375 2.03125l0 4.25l-1.328125 0z" fill-rule="nonzero"></path><path fill="#000000" d="m31.251741 438.5157l0 -10.734375l1.3281231 0l0 10.734375l-1.3281231 0zm8.365522 -0.953125q-0.734375 0.609375 -1.40625 0.875q-0.671875 0.25 -1.453125 0.25q-1.28125 0 -1.96875 -0.625q-0.6875 -0.625 -0.6875 -1.59375q0 -0.578125 0.25 -1.046875q0.265625 -0.46875 0.6875 -0.75q0.421875 -0.296875 0.953125 -0.4375q0.375 -0.109375 1.171875 -0.203125q1.59375 -0.1875 2.34375 -0.453125q0.015625 -0.265625 0.015625 -0.34375q0 -0.8125 -0.375 -1.140625q-0.515625 -0.4375 -1.5 -0.4375q-0.9375 0 -1.390625 0.328125q-0.4375 0.3125 -0.640625 1.140625l-1.296875 -0.171875q0.171875 -0.828125 0.578125 -1.328125q0.40625 -0.515625 1.171875 -0.78125q0.765625 -0.28125 1.765625 -0.28125q1.0 0 1.609375 0.234375q0.625 0.234375 0.921875 0.59375q0.296875 0.34375 0.40625 0.890625q0.0625 0.34375 0.0625 1.21875l0 1.75q0 1.84375 0.078125 2.328125q0.09375 0.484375 0.34375 0.9375l-1.375 0q-0.203125 -0.40625 -0.265625 -0.953125zm-0.109375 -2.953125q-0.71875 0.296875 -2.15625 0.5q-0.8125 0.125 -1.15625 0.265625q-0.328125 0.140625 -0.515625 0.421875q-0.171875 0.28125 -0.171875 0.625q0 0.53125 0.390625 0.890625q0.40625 0.34375 1.171875 0.34375q0.765625 0 1.359375 -0.328125q0.59375 -0.34375 0.875 -0.921875q0.203125 -0.4375 0.203125 -1.3125l0 -0.484375zm3.1354828 6.90625l-0.15625 -1.234375q0.4375 0.109375 0.75 0.109375q0.453125 0 0.703125 -0.15625q0.265625 -0.140625 0.4375 -0.40625q0.125 -0.1875 0.40625 -0.96875q0.03125 -0.109375 0.109375 -0.328125l-2.953125 -7.796875l1.421875 0l1.625 4.5q0.3125 0.859375 0.5625 1.8125q0.234375 -0.90625 0.546875 -1.78125l1.65625 -4.53125l1.328125 0l-2.96875 7.90625q-0.46875 1.28125 -0.734375 1.765625q-0.359375 0.65625 -0.8125 0.953125q-0.453125 0.3125 -1.078125 0.3125q-0.375 0 -0.84375 -0.15625zm12.703125 -5.5l1.359375 0.15625q-0.3125 1.203125 -1.1875 1.859375q-0.875 0.65625 -2.234375 0.65625q-1.703125 0 -2.703125 -1.046875q-1.0 -1.046875 -1.0 -2.953125q0 -1.953125 1.015625 -3.03125q1.015625 -1.09375 2.625 -1.09375q1.5625 0 2.546875 1.0625q0.984375 1.0625 0.984375 2.984375q0 0.125 0 0.359375l-5.8125 0q0.078125 1.28125 0.71875 1.96875q0.65625 0.671875 1.640625 0.671875q0.71875 0 1.234375 -0.375q0.515625 -0.390625 0.8125 -1.21875zm-4.328125 -2.140625l4.34375 0q-0.09375 -0.984375 -0.5 -1.46875q-0.625 -0.765625 -1.625 -0.765625q-0.921875 0 -1.546875 0.609375q-0.609375 0.609375 -0.671875 1.625zm7.135483 4.640625l0 -7.78125l1.1875 0l0 1.1875q0.453125 -0.828125 0.84375 -1.09375q0.390625 -0.265625 0.84375 -0.265625q0.671875 0 1.359375 0.421875l-0.453125 1.21875q-0.484375 -0.28125 -0.96875 -0.28125q-0.4375 0 -0.78125 0.265625q-0.34375 0.25 -0.484375 0.71875q-0.21875 0.703125 -0.21875 1.53125l0 4.078125l-1.328125 0z" fill-rule="nonzero"></path><path fill="#000000" fill-opacity="0.0" d="m217.64583 339.4357l81.54329 0l0 80.47244l-81.54329 0z" fill-rule="evenodd"></path><path fill="#000000" d="m235.25589 360.18756l1.296875 -0.203125q0.109375 0.78125 0.609375 1.203125q0.5 0.421875 1.40625 0.421875q0.90625 0 1.34375 -0.359375q0.4375 -0.375 0.4375 -0.875q0 -0.453125 -0.390625 -0.703125q-0.265625 -0.1875 -1.34375 -0.453125q-1.453125 -0.359375 -2.015625 -0.625q-0.546875 -0.28125 -0.84375 -0.75q-0.28125 -0.46875 -0.28125 -1.046875q0 -0.515625 0.234375 -0.953125q0.234375 -0.453125 0.640625 -0.734375q0.3125 -0.234375 0.84375 -0.390625q0.53125 -0.15625 1.140625 -0.15625q0.90625 0 1.59375 0.265625q0.703125 0.265625 1.03125 0.71875q0.328125 0.4375 0.453125 1.203125l-1.28125 0.171875q-0.09375 -0.609375 -0.515625 -0.9375q-0.421875 -0.34375 -1.1875 -0.34375q-0.90625 0 -1.296875 0.3125q-0.390625 0.296875 -0.390625 0.703125q0 0.25 0.15625 0.453125q0.171875 0.21875 0.515625 0.359375q0.1875 0.0625 1.15625 0.328125q1.40625 0.375 1.953125 0.609375q0.5625 0.234375 0.875 0.703125q0.3125 0.453125 0.3125 1.125q0 0.65625 -0.390625 1.234375q-0.375 0.578125 -1.109375 0.90625q-0.71875 0.3125 -1.640625 0.3125q-1.515625 0 -2.3125 -0.625q-0.78125 -0.625 -1.0 -1.875zm13.171875 -0.171875l1.359375 0.15625q-0.3125 1.203125 -1.1875 1.859375q-0.875 0.65625 -2.234375 0.65625q-1.703125 0 -2.703125 -1.046875q-1.0 -1.046875 -1.0 -2.953125q0 -1.953125 1.015625 -3.03125q1.015625 -1.09375 2.625 -1.09375q1.5625 0 2.546875 1.0625q0.984375 1.0625 0.984375 2.984375q0 0.125 0 0.359375l-5.8125 0q0.078125 1.28125 0.71875 1.96875q0.65625 0.671875 1.640625 0.671875q0.71875 0 1.234375 -0.375q0.515625 -0.390625 0.8125 -1.21875zm-4.328125 -2.140625l4.34375 0q-0.09375 -0.984375 -0.5 -1.46875q-0.625 -0.765625 -1.625 -0.765625q-0.921875 0 -1.546875 0.609375q-0.609375 0.609375 -0.671875 1.625zm12.229218 1.796875l1.296875 0.15625q-0.203125 1.34375 -1.09375 2.109375q-0.87498474 0.75 -2.1406097 0.75q-1.59375 0 -2.5625 -1.03125q-0.96875 -1.046875 -0.96875 -3.0q0 -1.265625 0.40625 -2.203125q0.421875 -0.953125 1.265625 -1.421875q0.859375 -0.46875 1.859375 -0.46875q1.265625 0 2.0781097 0.640625q0.8125 0.640625 1.03125 1.8125l-1.28125 0.203125q-0.1875 -0.78125 -0.65623474 -1.171875q-0.453125 -0.40625 -1.109375 -0.40625q-1.0 0 -1.625 0.71875q-0.625 0.71875 -0.625 2.265625q0 1.5625 0.59375 2.28125q0.609375 0.703125 1.578125 0.703125q0.78125 0 1.296875 -0.46875q0.51560974 -0.484375 0.65623474 -1.46875zm1.765625 -1.046875q0 -2.15625 1.203125 -3.203125q1.0 -0.859375 2.4375 -0.859375q1.609375 0 2.625 1.046875q1.015625 1.046875 1.015625 2.90625q0 1.5 -0.453125 2.359375q-0.4375 0.859375 -1.3125 1.34375q-0.859375 0.46875 -1.875 0.46875q-1.625 0 -2.640625 -1.046875q-1.0 -1.046875 -1.0 -3.015625zm1.359375 0q0 1.5 0.640625 2.25q0.65625 0.734375 1.640625 0.734375q0.984375 0 1.640625 -0.75q0.65625 -0.75 0.65625 -2.28125q0 -1.4375 -0.65625 -2.171875q-0.65625 -0.75 -1.640625 -0.75q-0.984375 0 -1.640625 0.734375q-0.640625 0.734375 -0.640625 2.234375zm7.276123 3.890625l0 -7.78125l1.1875 0l0 1.109375q0.859375 -1.28125 2.484375 -1.28125q0.703125 0 1.28125 0.25q0.59375 0.25 0.890625 0.671875q0.296875 0.40625 0.40625 0.96875q0.078125 0.359375 0.078125 1.28125l0 4.78125l-1.328125 0l0 -4.734375q0 -0.796875 -0.15625 -1.1875q-0.140625 -0.40625 -0.53125 -0.640625q-0.390625 -0.25 -0.921875 -0.25q-0.84375 0 -1.453125 0.53125q-0.609375 0.53125 -0.609375 2.03125l0 4.25l-1.328125 0zm13.197968 0l0 -0.984375q-0.734375 1.15625 -2.171875 1.15625q-0.921875 0 -1.703125 -0.5q-0.78125 -0.515625 -1.21875 -1.4375q-0.421875 -0.921875 -0.421875 -2.109375q0 -1.171875 0.390625 -2.109375q0.390625 -0.953125 1.15625 -1.453125q0.78125 -0.515625 1.734375 -0.515625q0.703125 0 1.25 0.296875q0.5625 0.296875 0.90625 0.765625l0 -3.84375l1.3125 0l0 10.734375l-1.234375 0zm-4.15625 -3.875q0 1.484375 0.625 2.234375q0.625 0.734375 1.484375 0.734375q0.859375 0 1.46875 -0.703125q0.609375 -0.71875 0.609375 -2.15625q0 -1.609375 -0.625 -2.34375q-0.609375 -0.75 -1.515625 -0.75q-0.875 0 -1.46875 0.71875q-0.578125 0.71875 -0.578125 2.265625z" fill-rule="nonzero"></path><path fill="#000000" d="m237.39601 380.5157l0 -10.734375l1.328125 0l0 3.84375q0.921875 -1.0625 2.328125 -1.0625q0.859375 0 1.5 0.34375q0.640625 0.34375 0.90625 0.9375q0.28125 0.59375 0.28125 1.75l0 4.921875l-1.328125 0l0 -4.921875q0 -1.0 -0.421875 -1.4375q-0.421875 -0.453125 -1.21875 -0.453125q-0.578125 0 -1.09375 0.296875q-0.515625 0.296875 -0.734375 0.828125q-0.21875 0.515625 -0.21875 1.4375l0 4.25l-1.328125 0zm8.166733 -9.21875l0 -1.515625l1.3125 0l0 1.515625l-1.3125 0zm0 9.21875l0 -7.78125l1.3125 0l0 7.78125l-1.3125 0zm8.287399 0l0 -0.984375q-0.734375 1.15625 -2.171875 1.15625q-0.921875 0 -1.703125 -0.5q-0.78125 -0.515625 -1.21875 -1.4375q-0.421875 -0.921875 -0.421875 -2.109375q0 -1.171875 0.390625 -2.109375q0.390625 -0.953125 1.15625 -1.453125q0.78125 -0.515625 1.734375 -0.515625q0.703125 0 1.25 0.296875q0.5625 0.296875 0.90625 0.765625l0 -3.84375l1.3125 0l0 10.734375l-1.234375 0zm-4.15625 -3.875q0 1.484375 0.625 2.234375q0.625 0.734375 1.484375 0.734375q0.859375 0 1.46875 -0.703125q0.609375 -0.71875 0.609375 -2.15625q0 -1.609375 -0.625 -2.34375q-0.609375 -0.75 -1.515625 -0.75q-0.875 0 -1.46875 0.71875q-0.578125 0.71875 -0.578125 2.265625zm12.307358 3.875l0 -0.984375q-0.734375 1.15625 -2.171875 1.15625q-0.921875 0 -1.703125 -0.5q-0.78125 -0.515625 -1.21875 -1.4375q-0.421875 -0.921875 -0.421875 -2.109375q0 -1.171875 0.390625 -2.109375q0.390625 -0.953125 1.15625 -1.453125q0.78125 -0.515625 1.734375 -0.515625q0.703125 0 1.25 0.296875q0.5625 0.296875 0.90625 0.765625l0 -3.84375l1.3125 0l0 10.734375l-1.234375 0zm-4.15625 -3.875q0 1.484375 0.625 2.234375q0.625 0.734375 1.484375 0.734375q0.859375 0 1.46875 -0.703125q0.609375 -0.71875 0.609375 -2.15625q0 -1.609375 -0.625 -2.34375q-0.609375 -0.75 -1.515625 -0.75q-0.875 0 -1.46875 0.71875q-0.578125 0.71875 -0.578125 2.265625zm12.588593 1.375l1.359375 0.15625q-0.3125 1.203125 -1.1875 1.859375q-0.875 0.65625 -2.234375 0.65625q-1.703125 0 -2.703125 -1.046875q-1.0 -1.046875 -1.0 -2.953125q0 -1.953125 1.015625 -3.03125q1.015625 -1.09375 2.625 -1.09375q1.5625 0 2.546875 1.0625q0.984375 1.0625 0.984375 2.984375q0 0.125 0 0.359375l-5.8125 0q0.078125 1.28125 0.71875 1.96875q0.65625 0.671875 1.640625 0.671875q0.71875 0 1.234375 -0.375q0.515625 -0.390625 0.8125 -1.21875zm-4.328125 -2.140625l4.34375 0q-0.09375 -0.984375 -0.5 -1.46875q-0.625 -0.765625 -1.625 -0.765625q-0.921875 0 -1.546875 0.609375q-0.609375 0.609375 -0.671875 1.625zm7.151123 4.640625l0 -7.78125l1.1875 0l0 1.109375q0.859375 -1.28125 2.484375 -1.28125q0.703125 0 1.28125 0.25q0.59375 0.25 0.890625 0.671875q0.296875 0.40625 0.40625 0.96875q0.078125 0.359375 0.078125 1.28125l0 4.78125l-1.328125 0l0 -4.734375q0 -0.796875 -0.15625 -1.1875q-0.140625 -0.40625 -0.53125 -0.640625q-0.390625 -0.25 -0.921875 -0.25q-0.84375 0 -1.453125 0.53125q-0.609375 0.53125 -0.609375 2.03125l0 4.25l-1.328125 0z" fill-rule="nonzero"></path><path fill="#000000" d="m243.48703 398.5157l0 -10.734375l1.328125 0l0 10.734375l-1.328125 0zm8.365524 -0.953125q-0.734375 0.609375 -1.40625 0.875q-0.671875 0.25 -1.453125 0.25q-1.28125 0 -1.96875 -0.625q-0.6875 -0.625 -0.6875 -1.59375q0 -0.578125 0.25 -1.046875q0.265625 -0.46875 0.6875 -0.75q0.421875 -0.296875 0.953125 -0.4375q0.375 -0.109375 1.171875 -0.203125q1.59375 -0.1875 2.34375 -0.453125q0.015625 -0.265625 0.015625 -0.34375q0 -0.8125 -0.375 -1.140625q-0.515625 -0.4375 -1.5 -0.4375q-0.9375 0 -1.390625 0.328125q-0.4375 0.3125 -0.640625 1.140625l-1.296875 -0.171875q0.171875 -0.828125 0.578125 -1.328125q0.40625 -0.515625 1.171875 -0.78125q0.765625 -0.28125 1.765625 -0.28125q1.0 0 1.609375 0.234375q0.625 0.234375 0.921875 0.59375q0.296875 0.34375 0.40625 0.890625q0.0625 0.34375 0.0625 1.21875l0 1.75q0 1.84375 0.078125 2.328125q0.09375 0.484375 0.34375 0.9375l-1.375 0q-0.203125 -0.40625 -0.265625 -0.953125zm-0.109375 -2.953125q-0.71875 0.296875 -2.15625 0.5q-0.8125 0.125 -1.15625 0.265625q-0.328125 0.140625 -0.515625 0.421875q-0.171875 0.28125 -0.171875 0.625q0 0.53125 0.390625 0.890625q0.40625 0.34375 1.171875 0.34375q0.765625 0 1.359375 -0.328125q0.59375 -0.34375 0.875 -0.921875q0.203125 -0.4375 0.203125 -1.3125l0 -0.484375zm3.1354828 6.90625l-0.15625 -1.234375q0.4375 0.109375 0.75 0.109375q0.453125 0 0.703125 -0.15625q0.265625 -0.140625 0.4375 -0.40625q0.125 -0.1875 0.40625 -0.96875q0.03125 -0.109375 0.109375 -0.328125l-2.953125 -7.796875l1.421875 0l1.625 4.5q0.3125 0.859375 0.5625 1.8125q0.234375 -0.90625 0.546875 -1.78125l1.65625 -4.53125l1.328125 0l-2.96875 7.90625q-0.46875 1.28125 -0.734375 1.765625q-0.359375 0.65625 -0.8125 0.953125q-0.453125 0.3125 -1.078125 0.3125q-0.375 0 -0.84375 -0.15625zm12.703125 -5.5l1.359375 0.15625q-0.3125 1.203125 -1.1875 1.859375q-0.875 0.65625 -2.234375 0.65625q-1.703125 0 -2.703125 -1.046875q-1.0 -1.046875 -1.0 -2.953125q0 -1.953125 1.015625 -3.03125q1.015625 -1.09375 2.625 -1.09375q1.5625 0 2.546875 1.0625q0.984375 1.0625 0.984375 2.984375q0 0.125 0 0.359375l-5.8125 0q0.078125 1.28125 0.71875 1.96875q0.65625 0.671875 1.640625 0.671875q0.71875 0 1.234375 -0.375q0.515625 -0.390625 0.8125 -1.21875zm-4.328125 -2.140625l4.34375 0q-0.09375 -0.984375 -0.5 -1.46875q-0.625 -0.765625 -1.625 -0.765625q-0.921875 0 -1.546875 0.609375q-0.609375 0.609375 -0.671875 1.625zm7.135498 4.640625l0 -7.78125l1.1875 0l0 1.1875q0.453125 -0.828125 0.84375 -1.09375q0.390625 -0.265625 0.84375 -0.265625q0.671875 0 1.359375 0.421875l-0.453125 1.21875q-0.484375 -0.28125 -0.96875 -0.28125q-0.4375 0 -0.78125 0.265625q-0.34375 0.25 -0.484375 0.71875q-0.21875 0.703125 -0.21875 1.53125l0 4.078125l-1.328125 0z" fill-rule="nonzero"></path><path fill="#000000" fill-opacity="0.0" d="m425.6458 299.4357l81.543304 0l0 80.47244l-81.543304 0z" fill-rule="evenodd"></path><path fill="#000000" d="m456.037 321.3438l0.1875 1.15625q-0.5625 0.125 -1.0 0.125q-0.71875 0 -1.125 -0.234375q-0.390625 -0.234375 -0.546875 -0.59375q-0.15625 -0.375 -0.15625 -1.5625l0 -4.46875l-0.96875 0l0 -1.03125l0.96875 0l0 -1.921875l1.3125 -0.796875l0 2.71875l1.328125 0l0 1.03125l-1.328125 0l0 4.546875q0 0.5625 0.0625 0.734375q0.078125 0.15625 0.234375 0.25q0.15625 0.09375 0.4375 0.09375q0.234375 0 0.59375 -0.046875zm1.1813354 1.171875l0 -10.734375l1.328125 0l0 3.84375q0.921875 -1.0625 2.328125 -1.0625q0.859375 0 1.5 0.34375q0.640625 0.34375 0.90625 0.9375q0.28125 0.59375 0.28125 1.75l0 4.921875l-1.328125 0l0 -4.921875q0 -1.0 -0.421875 -1.4375q-0.421875 -0.453125 -1.21875 -0.453125q-0.578125 0 -1.09375 0.296875q-0.515625 0.296875 -0.734375 0.828125q-0.21875 0.515625 -0.21875 1.4375l0 4.25l-1.328125 0zm8.166748 -9.21875l0 -1.515625l1.3125 0l0 1.515625l-1.3125 0zm0 9.21875l0 -7.78125l1.3125 0l0 7.78125l-1.3125 0zm3.224884 0l0 -7.78125l1.1875 0l0 1.1875q0.453125 -0.828125 0.84375 -1.09375q0.390625 -0.265625 0.84375 -0.265625q0.671875 0 1.359375 0.421875l-0.453125 1.21875q-0.484375 -0.28125 -0.96875 -0.28125q-0.4375 0 -0.78125 0.265625q-0.34375 0.25 -0.484375 0.71875q-0.21875 0.703125 -0.21875 1.53125l0 4.078125l-1.328125 0zm9.943146 0l0 -0.984375q-0.734375 1.15625 -2.171875 1.15625q-0.921875 0 -1.703125 -0.5q-0.78125 -0.515625 -1.21875 -1.4375q-0.421875 -0.921875 -0.421875 -2.109375q0 -1.171875 0.390625 -2.109375q0.390625 -0.953125 1.15625 -1.453125q0.78125 -0.515625 1.734375 -0.515625q0.703125 0 1.25 0.296875q0.5625 0.296875 0.90625 0.765625l0 -3.84375l1.3125 0l0 10.734375l-1.234375 0zm-4.15625 -3.875q0 1.484375 0.625 2.234375q0.625 0.734375 1.484375 0.734375q0.859375 0 1.46875 -0.703125q0.609375 -0.71875 0.609375 -2.15625q0 -1.609375 -0.625 -2.34375q-0.609375 -0.75 -1.515625 -0.75q-0.875 0 -1.46875 0.71875q-0.578125 0.71875 -0.578125 2.265625z" fill-rule="nonzero"></path><path fill="#000000" d="m445.396 340.5157l0 -10.734375l1.328125 0l0 3.84375q0.921875 -1.0625 2.328125 -1.0625q0.859375 0 1.5 0.34375q0.640625 0.34375 0.90625 0.9375q0.28125 0.59375 0.28125 1.75l0 4.921875l-1.328125 0l0 -4.921875q0 -1.0 -0.421875 -1.4375q-0.421875 -0.453125 -1.21875 -0.453125q-0.578125 0 -1.09375 0.296875q-0.515625 0.296875 -0.734375 0.828125q-0.21875 0.515625 -0.21875 1.4375l0 4.25l-1.328125 0zm8.166748 -9.21875l0 -1.515625l1.3125 0l0 1.515625l-1.3125 0zm0 9.21875l0 -7.78125l1.3125 0l0 7.78125l-1.3125 0zm8.287384 0l0 -0.984375q-0.734375 1.15625 -2.171875 1.15625q-0.921875 0 -1.703125 -0.5q-0.78125 -0.515625 -1.21875 -1.4375q-0.421875 -0.921875 -0.421875 -2.109375q0 -1.171875 0.390625 -2.109375q0.390625 -0.953125 1.15625 -1.453125q0.78125 -0.515625 1.734375 -0.515625q0.703125 0 1.25 0.296875q0.5625 0.296875 0.90625 0.765625l0 -3.84375l1.3125 0l0 10.734375l-1.234375 0zm-4.15625 -3.875q0 1.484375 0.625 2.234375q0.625 0.734375 1.484375 0.734375q0.859375 0 1.46875 -0.703125q0.609375 -0.71875 0.609375 -2.15625q0 -1.609375 -0.625 -2.34375q-0.609375 -0.75 -1.515625 -0.75q-0.875 0 -1.46875 0.71875q-0.578125 0.71875 -0.578125 2.265625zm12.307373 3.875l0 -0.984375q-0.734375 1.15625 -2.171875 1.15625q-0.921875 0 -1.703125 -0.5q-0.78125 -0.515625 -1.21875 -1.4375q-0.421875 -0.921875 -0.421875 -2.109375q0 -1.171875 0.390625 -2.109375q0.390625 -0.953125 1.15625 -1.453125q0.78125 -0.515625 1.734375 -0.515625q0.703125 0 1.25 0.296875q0.5625 0.296875 0.90625 0.765625l0 -3.84375l1.3125 0l0 10.734375l-1.234375 0zm-4.15625 -3.875q0 1.484375 0.625 2.234375q0.625 0.734375 1.484375 0.734375q0.859375 0 1.46875 -0.703125q0.609375 -0.71875 0.609375 -2.15625q0 -1.609375 -0.625 -2.34375q-0.609375 -0.75 -1.515625 -0.75q-0.875 0 -1.46875 0.71875q-0.578125 0.71875 -0.578125 2.265625zm12.588593 1.375l1.359375 0.15625q-0.3125 1.203125 -1.1875 1.859375q-0.875 0.65625 -2.234375 0.65625q-1.703125 0 -2.703125 -1.046875q-1.0 -1.046875 -1.0 -2.953125q0 -1.953125 1.015625 -3.03125q1.015625 -1.09375 2.625 -1.09375q1.5625 0 2.546875 1.0625q0.984375 1.0625 0.984375 2.984375q0 0.125 0 0.359375l-5.8125 0q0.078125 1.28125 0.71875 1.96875q0.65625 0.671875 1.640625 0.671875q0.71875 0 1.234375 -0.375q0.515625 -0.390625 0.8125 -1.21875zm-4.328125 -2.140625l4.34375 0q-0.09375 -0.984375 -0.5 -1.46875q-0.625 -0.765625 -1.625 -0.765625q-0.921875 0 -1.546875 0.609375q-0.609375 0.609375 -0.671875 1.625zm7.151123 4.640625l0 -7.78125l1.1875 0l0 1.109375q0.859375 -1.28125 2.484375 -1.28125q0.703125 0 1.28125 0.25q0.59375 0.25 0.890625 0.671875q0.296875 0.40625 0.40625 0.96875q0.078125 0.359375 0.078125 1.28125l0 4.78125l-1.328125 0l0 -4.734375q0 -0.796875 -0.15625 -1.1875q-0.140625 -0.40625 -0.53125 -0.640625q-0.390625 -0.25 -0.921875 -0.25q-0.84375 0 -1.453125 0.53125q-0.609375 0.53125 -0.609375 2.03125l0 4.25l-1.328125 0z" fill-rule="nonzero"></path><path fill="#000000" d="m451.48703 358.5157l0 -10.734375l1.328125 0l0 10.734375l-1.328125 0zm8.36554 -0.953125q-0.734375 0.609375 -1.40625 0.875q-0.671875 0.25 -1.453125 0.25q-1.28125 0 -1.96875 -0.625q-0.6875 -0.625 -0.6875 -1.59375q0 -0.578125 0.25 -1.046875q0.265625 -0.46875 0.6875 -0.75q0.421875 -0.296875 0.953125 -0.4375q0.375 -0.109375 1.171875 -0.203125q1.59375 -0.1875 2.34375 -0.453125q0.015625 -0.265625 0.015625 -0.34375q0 -0.8125 -0.375 -1.140625q-0.515625 -0.4375 -1.5 -0.4375q-0.9375 0 -1.390625 0.328125q-0.4375 0.3125 -0.640625 1.140625l-1.296875 -0.171875q0.171875 -0.828125 0.578125 -1.328125q0.40625 -0.515625 1.171875 -0.78125q0.765625 -0.28125 1.765625 -0.28125q1.0 0 1.609375 0.234375q0.625 0.234375 0.921875 0.59375q0.296875 0.34375 0.40625 0.890625q0.0625 0.34375 0.0625 1.21875l0 1.75q0 1.84375 0.078125 2.328125q0.09375 0.484375 0.34375 0.9375l-1.375 0q-0.203125 -0.40625 -0.265625 -0.953125zm-0.109375 -2.953125q-0.71875 0.296875 -2.15625 0.5q-0.8125 0.125 -1.15625 0.265625q-0.328125 0.140625 -0.515625 0.421875q-0.171875 0.28125 -0.171875 0.625q0 0.53125 0.390625 0.890625q0.40625 0.34375 1.171875 0.34375q0.765625 0 1.359375 -0.328125q0.59375 -0.34375 0.875 -0.921875q0.203125 -0.4375 0.203125 -1.3125l0 -0.484375zm3.1354675 6.90625l-0.15625 -1.234375q0.4375 0.109375 0.75 0.109375q0.453125 0 0.703125 -0.15625q0.265625 -0.140625 0.4375 -0.40625q0.125 -0.1875 0.40625 -0.96875q0.03125 -0.109375 0.109375 -0.328125l-2.953125 -7.796875l1.421875 0l1.625 4.5q0.3125 0.859375 0.5625 1.8125q0.234375 -0.90625 0.546875 -1.78125l1.65625 -4.53125l1.328125 0l-2.96875 7.90625q-0.46875 1.28125 -0.734375 1.765625q-0.359375 0.65625 -0.8125 0.953125q-0.453125 0.3125 -1.078125 0.3125q-0.375 0 -0.84375 -0.15625zm12.703125 -5.5l1.359375 0.15625q-0.3125 1.203125 -1.1875 1.859375q-0.875 0.65625 -2.234375 0.65625q-1.703125 0 -2.703125 -1.046875q-1.0 -1.046875 -1.0 -2.953125q0 -1.953125 1.015625 -3.03125q1.015625 -1.09375 2.625 -1.09375q1.5625 0 2.546875 1.0625q0.984375 1.0625 0.984375 2.984375q0 0.125 0 0.359375l-5.8125 0q0.078125 1.28125 0.71875 1.96875q0.65625 0.671875 1.640625 0.671875q0.71875 0 1.234375 -0.375q0.515625 -0.390625 0.8125 -1.21875zm-4.328125 -2.140625l4.34375 0q-0.09375 -0.984375 -0.5 -1.46875q-0.625 -0.765625 -1.625 -0.765625q-0.921875 0 -1.546875 0.609375q-0.609375 0.609375 -0.671875 1.625zm7.135498 4.640625l0 -7.78125l1.1875 0l0 1.1875q0.453125 -0.828125 0.84375 -1.09375q0.390625 -0.265625 0.84375 -0.265625q0.671875 0 1.359375 0.421875l-0.453125 1.21875q-0.484375 -0.28125 -0.96875 -0.28125q-0.4375 0 -0.78125 0.265625q-0.34375 0.25 -0.484375 0.71875q-0.21875 0.703125 -0.21875 1.53125l0 4.078125l-1.328125 0z" fill-rule="nonzero"></path></g></svg>

